<?xml version="1.0" standalone="no"?><!DOCTYPE svg PUBLIC "-//W3C//DTD SVG 1.1//EN" "http://www.w3.org/Graphics/SVG/1.1/DTD/svg11.dtd"><svg t="1662703470942" class="icon" viewBox="0 0 1024 1024" version="1.1" xmlns="http://www.w3.org/2000/svg" p-id="21607" xmlns:xlink="http://www.w3.org/1999/xlink" width="200" height="200"><path d="M290.8 902c-18 0-34.8-6-47.5-17-14.5-12.6-22.4-31.1-22.4-52l-0.4-46c-34.1-8.3-56.4-37-56.4-75.5V256.8c0-43.7 32.9-77.9 75-77.9h76.3c17.9-34.5 53.6-56.8 93.1-56.8h201.3c39.5 0 75.1 22.3 93 56.8H779c43.9 0 80.9 35.7 80.9 77.9v454.7c0 35-23.1 64.5-55.4 74.3-0.2 10.6-0.7 27-1.5 52.6 0 41-36.9 63.4-71.7 63.4-17.3 0-33.5-5.4-45.5-15.2-14.4-11.7-22.3-29-22.3-48.9l-0.1-48.4H362.7l0.1 43.5c0 45-37.1 69.2-72 69.2z m-51.7-680.9c-19 0-32.7 15-32.7 35.7v454.7c0 8.4 2.5 35.7 35.1 35.7h20.9l0.8 85.6c0 9 2.7 15.8 7.9 20.3 4.8 4.2 12 6.6 19.7 6.6 11 0 29.7-5.6 29.7-26.8l-0.2-85.8h385.3l0.2 90.5c0 7.2 2.2 12.5 6.7 16.1 4.5 3.7 11.4 5.8 18.9 5.8 11.8 0 29.4-5.8 29.4-21.9 0.9-29 1.8-61 1.8-67.8l-3.5-22 23.7-0.9c19.5-0.8 34.8-16.4 34.8-35.5V256.8c0-19-18.1-35.7-38.7-35.7H673.8l-4.9-14.2c-8.8-25.5-32.6-42.6-59.2-42.6H408.4c-26.7 0-50.5 17.1-59.2 42.6l-4.9 14.2H239.1z m537.7 293.4h-532V301.8h531.9v212.7z m-489.7-42.2h447.5V344H287.1v128.3z" p-id="21608"></path><path d="M303.4 691.7c-29.4 0-53.3-23.8-53.3-53.3 0-29.4 23.9-53.3 53.3-53.3s53.2 23.8 53.2 53.3c0 29.4-23.8 53.3-53.2 53.3zM664.4 638.4c0-29.4 23.9-53.3 53.3-53.3s53.3 23.8 53.3 53.3c0 29.5-23.8 53.3-53.3 53.3-29.5 0-53.3-23.9-53.3-53.3z" p-id="21609"></path></svg>