<?xml version="1.0" standalone="no"?><!DOCTYPE svg PUBLIC "-//W3C//DTD SVG 1.1//EN" "http://www.w3.org/Graphics/SVG/1.1/DTD/svg11.dtd"><svg t="1662703541580" class="icon" viewBox="0 0 1024 1024" version="1.1" xmlns="http://www.w3.org/2000/svg" p-id="28142" xmlns:xlink="http://www.w3.org/1999/xlink" width="200" height="200"><path d="M511.8464 136.533333c-207.36 0-375.466667 168.106667-375.466667 375.466667 0 207.36 168.106667 375.466667 375.466667 375.466667 207.36 0 375.466667-168.106667 375.466667-375.466667C887.313067 304.64 719.2064 136.533333 511.8464 136.533333zM682.7008 554.205867l-152.900267 146.858667c-4.8128 4.625067-11.349333 7.2192-18.176 7.2192-6.826667 0-13.3632-2.594133-18.176-7.2192l-152.917333-146.858667c-21.742933-20.718933-33.706667-48.264533-33.706667-77.550933 0-29.303467 11.9808-56.849067 33.7408-77.568 21.76-20.718933 50.688-32.136533 81.4592-32.136533 30.7712 0 55.432533 11.4176 77.192533 32.136533 0 0 0 0 0 0 0.017067 0.017067 0.017067 0.017067 0.034133 0.034133l12.373333 13.943467 12.356267-14.830933c0 0 0 0 0-0.017067 0.017067-0.017067 0.017067-0.017067 0.034133-0.034133 21.76-20.718933 46.421333-31.249067 77.192533-31.249067 30.7712 0 59.6992 11.4176 81.4592 32.136533 21.76 20.718933 33.7408 48.2816 33.7408 77.585067C716.424533 505.941333 704.443733 533.486933 682.7008 554.205867z" p-id="28143"></path></svg>