<?xml version="1.0" standalone="no"?><!DOCTYPE svg PUBLIC "-//W3C//DTD SVG 1.1//EN" "http://www.w3.org/Graphics/SVG/1.1/DTD/svg11.dtd"><svg t="1662703533575" class="icon" viewBox="0 0 1024 1024" version="1.1" xmlns="http://www.w3.org/2000/svg" p-id="27863" xmlns:xlink="http://www.w3.org/1999/xlink" width="200" height="200"><path d="M793.6 307.2l29.866667-29.866667c72.533333 98.133333 64 238.933333-25.6 328.533334-76.8 76.8-196.266667 93.866667-290.133334 51.2l-221.866666 221.866666-34.133334-29.866666-59.733333-59.733334-29.866667-29.866666L384 537.6c-46.933333-93.866667-29.866667-213.333333 51.2-290.133333 89.6-89.6 230.4-98.133333 328.533333-25.6l-29.866666 29.866666L644.266667 341.333333l59.733333 59.733334 89.6-93.866667z m21.333333 38.4L733.866667 426.666667l-29.866667 29.866666-119.466667-119.466666 29.866667-29.866667 76.8-76.8c-76.8-34.133333-166.4-17.066667-226.133333 42.666667-85.333333 85.333333-85.333333 217.6 0 302.933333s217.6 85.333333 302.933333 0c59.733333-64 76.8-153.6 46.933333-230.4zM221.866667 755.2l59.733333 59.733333 183.466667-183.466666c-12.8-8.533333-21.333333-17.066667-34.133334-25.6s-21.333333-21.333333-25.6-34.133334l-183.466666 183.466667z" fill="#444444" p-id="27864"></path></svg>