<?xml version="1.0" standalone="no"?><!DOCTYPE svg PUBLIC "-//W3C//DTD SVG 1.1//EN" "http://www.w3.org/Graphics/SVG/1.1/DTD/svg11.dtd"><svg t="1662718985543" class="icon" viewBox="0 0 1024 1024" version="1.1" xmlns="http://www.w3.org/2000/svg" p-id="36174" xmlns:xlink="http://www.w3.org/1999/xlink" width="200" height="200"><path d="M62.805333 983.552c-4.437333 0-8.874667-1.194667-12.970666-3.584-7.850667-4.608-12.629333-12.970667-12.629334-22.016V127.488C37.205333 75.946667 81.578667 34.133333 136.021333 34.133333H735.573333c54.442667 0 98.645333 41.813333 98.645334 93.354667v421.546667c0 14.165333-11.434667 25.6-25.6 25.6s-25.6-11.434667-25.6-25.6V127.488C783.018667 104.277333 761.685333 85.333333 735.573333 85.333333H136.021333C109.738667 85.333333 88.405333 104.277333 88.405333 127.488v786.773333l143.872-80.725333c7.68-4.266667 16.896-4.437333 24.576-0.170667l179.370667 96.085334 137.557333-66.218667c12.8-6.144 27.989333-0.682667 34.133334 11.946667 6.144 12.8 0.682667 27.989333-11.946667 34.133333l-149.333333 71.850667c-7.338667 3.584-15.872 3.413333-23.210667-0.512l-178.517333-95.573334-169.813334 95.232c-3.584 2.218667-7.850667 3.242667-12.288 3.242667z" fill="#333333" p-id="36175"></path><path d="M645.973333 261.632H225.621333c-14.165333 0-25.6-11.434667-25.6-25.6s11.434667-25.6 25.6-25.6h420.352c14.165333 0 25.6 11.434667 25.6 25.6s-11.605333 25.6-25.6 25.6zM645.973333 442.709333H225.621333c-14.165333 0-25.6-11.434667-25.6-25.6s11.434667-25.6 25.6-25.6h420.352c14.165333 0 25.6 11.434667 25.6 25.6s-11.605333 25.6-25.6 25.6z" fill="#333333" p-id="36176"></path><path d="M749.226667 989.866667c-130.901333 0-237.397333-106.496-237.397334-237.397334s106.496-237.397333 237.397334-237.397333 237.397333 106.496 237.397333 237.397333S880.128 989.866667 749.226667 989.866667z m0-423.765334c-102.741333 0-186.197333 83.626667-186.197334 186.197334S646.656 938.666667 749.226667 938.666667s186.197333-83.626667 186.197333-186.197334-83.456-186.368-186.197333-186.368z" fill="#333333" p-id="36177"></path><path d="M812.885333 756.906667h-127.146666c-14.165333 0-25.6-11.434667-25.6-25.6s11.434667-25.6 25.6-25.6h127.146666c14.165333 0 25.6 11.434667 25.6 25.6s-11.434667 25.6-25.6 25.6zM812.885333 820.394667h-127.146666c-14.165333 0-25.6-11.434667-25.6-25.6s11.434667-25.6 25.6-25.6h127.146666c14.165333 0 25.6 11.434667 25.6 25.6s-11.434667 25.6-25.6 25.6z" fill="#333333" p-id="36178"></path><path d="M749.397333 883.882667c-14.165333 0-25.6-11.434667-25.6-25.6v-127.146667c0-14.165333 11.434667-25.6 25.6-25.6s25.6 11.434667 25.6 25.6v127.146667c0 14.165333-11.434667 25.6-25.6 25.6z" fill="#333333" p-id="36179"></path><path d="M749.226667 756.906667l-81.578667-81.749334c-10.069333-10.069333-10.069333-26.282667 0-36.181333s26.282667-10.069333 36.181333 0l45.397334 45.397333 45.397333-45.397333c9.898667-10.069333 26.282667-10.069333 36.181333 0s10.069333 26.282667 0 36.181333l-81.578666 81.749334z" fill="#333333" p-id="36180"></path><path d="M668.16 688.810667m-232.448 0a232.448 232.448 0 1 0 464.896 0 232.448 232.448 0 1 0-464.896 0Z" fill="#333333" opacity=".3" p-id="36181"></path></svg>