<?xml version="1.0" standalone="no"?><!DOCTYPE svg PUBLIC "-//W3C//DTD SVG 1.1//EN" "http://www.w3.org/Graphics/SVG/1.1/DTD/svg11.dtd"><svg t="1662703565077" class="icon" viewBox="0 0 1024 1024" version="1.1" xmlns="http://www.w3.org/2000/svg" p-id="30317" xmlns:xlink="http://www.w3.org/1999/xlink" width="200" height="200"><path d="M418.601 431.498c0.39-0.133 42.916-14.821 71.351 2.281a3.51 3.51 0 0 0 1.808 0.521c1.25 0 2.414-0.605 3.103-1.724 1.034-1.64 0.473-3.837-1.207-4.871-31.281-18.83-75.656-3.576-77.468-2.89a3.53 3.53 0 0 0-2.197 4.529c0.649 1.852 2.717 2.8 4.61 2.154zM343.028 456.874c-1.551 1.079-37.142 26.929-44.466 63.423-0.345 1.898 0.906 3.791 2.843 4.137 0.261 0.088 0.521 0.088 0.689 0.088a3.607 3.607 0 0 0 3.535-2.846c6.719-33.692 41.188-58.813 41.577-59.028 1.595-1.163 1.94-3.359 0.821-4.996-1.206-1.552-3.447-1.896-4.999-0.778zM329.025 270.615c-1.51 1.291-1.595 3.532-0.304 4.996 0.433 0.561 46.447 53.126 49.635 118.872a3.564 3.564 0 0 0 3.579 3.407h0.172c1.981-0.128 3.488-1.768 3.4-3.751-3.36-68.2-49.458-120.985-51.443-123.179-1.293-1.51-3.531-1.639-5.039-0.345z" p-id="30318"></path><path d="M512 0C229.23 0 0 229.23 0 512c0 282.769 229.23 512 512 512s512-229.23 512-512S794.77 0 512 0zM305.284 776.357l62.776-73.332c8.748 31.451 15.21 50.582 29.943 73.332h-92.719z m127.709 0s-7.585-18.313-8.879-21.932c-0.168-0.389-0.257-0.775-0.429-1.123-1.25-3.66-2.498-7.365-3.793-11.158-0.084-0.299-0.172-0.645-0.3-0.945-6.936-20.939-13.658-44.467-19.776-70.576v-0.045c-16.288-70.314-27.489-113.658-22.145-219.305-11.807 10.944-27.834 29.903-43.132 55.323-21.023 34.854-30.632 90.866-41.749 88.411-6.333-1.42-16.717-73.936-0.946-104.655 17.406-33.738 47.394-46.403 70.056-51.057-75.484-17.404-140.89 5.771-174.929 14.175-12.58 3.144-24.903 7.324-27.233 5.905-4.823-2.931 16.032-22.883 31.715-32.144 11.204-6.551 35.759-23.14 79.537-22.879 38.001 0.217 75.227 11.245 98.063 19.604-0.603-0.602-1.119-1.119-1.809-1.768-47.782-48.729-111.42-43.946-142.269-45.887-11.289-0.686-23.007-0.04-23.957-2.497-2.068-5.212 24.947-21.541 42.01-27.014 12.191-3.924 40.025-14.993 73.159 0.646 19.905 9.39 36.578 24.819 49.161 39.38-7.412-12.625-14.736-25.12-20.077-34.554-16.372-29.216-29.814-46.924-36.926-67.646-7.107-20.683-8.575-36.538-1.852-36.927 6.722-0.389 50.022-0.733 72.814 39.168 13.787 24.169 19.046 55.062 20.938 80.955 5.516-13.569 13.016-27.316 23.183-38.99 23.958-27.489 53.988-28.439 66.696-29.69 17.88-1.764 49.247 2.462 49.506 8.059 0.085 2.673-10.9 6.682-20.982 11.806-27.405 14.048-87.683 34.986-111.68 98.54-0.257 0.561-0.433 0.99-0.646 1.548 19.775-13.098 55.624-33.948 95.091-43.041 42.656-9.825 70.317 0.99 82.684 4.995 17.363 5.604 42.182 20.467 38.129 24.391-1.939 1.893-14.908 0.517-27.918 0.213-22.666-0.518-59.633-4.137-101.854 2.413 32.917 14.047 73.46 58.727 70.745 63.898-5.171 10.079-54.894-18.313-95.48-24.475-28.094-4.31-52.045-4.35-68.12-2.586 0.044 1.552 0 3.016-0.3 4.137-4.049 17.491 2.758 78.331 34.901 186.733 1.119 3.967 2.369 7.844 3.616 11.809 0.606 2.068 1.295 4.178 1.941 6.246a761.096 761.096 0 0 0 4.265 12.797 634.849 634.849 0 0 1 1.809 5.213c1.679 4.826 3.447 9.607 5.256 14.436 0.433 1.162 0.861 2.326 1.294 3.488 7.067 18.227 14.821 36.063 23.525 53.125 0.172 0.344 0.344 0.605 0.474 0.947 2.716 5.215 5.475 10.387 8.317 15.471a138.484 138.484 0 0 0 1.981 3.314c2.413 4.225 9.308 13.746 9.308 13.746h-62.993z m69.627-54.031l-0.26 0.301c-26.8-43.17-27.445-69.283-37.226-121.973l74.024-88.974 71.692 83.327-108.23 127.319z m43.256 54.031l-16.027-22.707 157.438-176.047 177.684 198.754H545.876z" p-id="30319"></path></svg>